<svg width="490" height="483" viewBox="0 0 490 483" fill="none" xmlns="http://www.w3.org/2000/svg">
<g clip-path="url(#clip0_14_81)">
<path d="M222.719 427.014C320.67 427.014 400.076 347.496 400.076 249.406C400.076 151.317 320.67 71.7991 222.719 71.7991C124.767 71.7991 45.3621 151.317 45.3621 249.406C45.3621 347.496 124.767 427.014 222.719 427.014Z" fill="white"/>
<path d="M369.053 143.486C390.141 143.486 407.236 126.367 407.236 105.249C407.236 84.1317 390.141 67.0125 369.053 67.0125C347.965 67.0125 330.87 84.1317 330.87 105.249C330.87 126.367 347.965 143.486 369.053 143.486Z" fill="#FFC861"/>
<path d="M32.622 231.88C44.9172 231.88 54.8845 221.899 54.8845 209.586C54.8845 197.274 44.9172 187.292 32.622 187.292C20.3267 187.292 10.3594 197.274 10.3594 209.586C10.3594 221.899 20.3267 231.88 32.622 231.88Z" fill="#FFC861"/>
<path d="M441.439 137.098C441.439 140.618 438.593 143.468 435.078 143.468C431.563 143.468 428.718 140.618 428.718 137.098C428.718 133.578 431.563 130.728 435.078 130.728C438.593 130.728 441.439 133.578 441.439 137.098Z" fill="#B87800"/>
<path d="M451.724 459.607C451.724 433.141 453.863 395.929 432.437 363.037C411.011 330.127 387.428 318.691 403.87 288.63C453.881 327.985 441.011 358.735 441.011 358.735C441.011 358.735 459.591 425.989 451.724 459.607Z" fill="#F8BC00"/>
<path d="M457.155 459.663C454.96 437.183 450.069 405.763 465.543 376.037C481.017 346.312 500.099 334.634 483.658 310.477C444.433 348.044 457.899 373.113 457.899 373.113C457.899 373.113 447.688 431.763 457.136 459.682L457.155 459.663Z" fill="#F8BC00"/>
<path d="M456.578 398.983C461.451 386.113 472.406 372.815 485.462 370.841C480.998 391.812 456.578 398.983 456.578 398.983Z" fill="#F8BC00"/>
<path d="M447.948 372.089C452.617 374.733 457.08 379.781 457.062 384.94C449.25 381.96 447.948 372.089 447.948 372.089Z" fill="#F8BC00"/>
<path d="M449.678 408.687C447.855 395.053 440.211 379.595 427.955 374.696C427.546 396.133 449.678 408.687 449.678 408.687Z" fill="#F8BC00"/>
<path d="M480.831 422.935H424.105C422.482 422.935 421.166 424.252 421.166 425.877V426.213C421.166 427.838 422.482 429.155 424.105 429.155H480.831C482.454 429.155 483.769 427.838 483.769 426.213V425.877C483.769 424.252 482.454 422.935 480.831 422.935Z" fill="#F8BC00"/>
<path d="M466.38 464.003H440.304C437.608 464.003 435.264 462.14 434.65 459.495L427.136 426.809H479.547L472.034 459.495C471.42 462.14 469.076 464.003 466.38 464.003Z" fill="#F8BC00"/>
<path d="M56.4284 431.204H10.6385C9.4778 431.204 8.53687 432.146 8.53687 433.309V434.072C8.53687 435.235 9.4778 436.177 10.6385 436.177H56.4284C57.5891 436.177 58.53 435.235 58.53 434.072V433.309C58.53 432.146 57.5891 431.204 56.4284 431.204Z" fill="#F8BC00"/>
<path d="M44.6368 464.003H23.8249C21.6675 464.003 19.789 462.513 19.3055 460.408L13.2981 434.315H55.1637L49.1563 460.408C48.6727 462.513 46.7943 464.003 44.6368 464.003Z" fill="#F8BC00"/>
<path d="M18.4128 391.496C-3.19887 378.868 -1.28321 366.166 5.13333 346.703C29.8137 362.646 18.4128 391.496 18.4128 391.496Z" fill="#F8BC00"/>
<path d="M41.9027 408.556C34.9468 384.493 45.1017 376.596 63.1424 366.948C70.0239 395.537 41.9027 408.556 41.9027 408.556Z" fill="#F8BC00"/>
<path d="M20.4957 395.277C15.3253 405.837 9.31792 405.371 0 403.025C6.62112 390.9 20.4957 395.277 20.4957 395.277Z" fill="#F8BC00"/>
<path d="M31.7107 377.248C33.0684 365.57 38.8898 363.987 48.4681 363.093C46.2548 376.726 31.7107 377.248 31.7107 377.248Z" fill="#F8BC00"/>
<path d="M30.8922 368.457C14.1162 349.869 19.7888 338.34 31.8035 321.746C50.4952 344.431 30.8922 368.457 30.8922 368.457Z" fill="#F8BC00"/>
<path d="M32.1941 364.639C32.0267 370.766 32.3615 376.987 32.7521 383.152C33.1799 389.335 33.7564 395.5 34.4446 401.646C35.8209 413.957 37.6435 426.213 39.7824 438.393L33.8122 439.287C32.3057 426.883 31.134 414.442 30.3901 401.982C30.0367 395.742 29.7763 389.503 29.6833 383.264C29.6089 377.024 29.6089 370.785 30.1111 364.49L32.1941 364.62V364.639Z" fill="#F8BC00"/>
<path d="M42.6653 406.042C42.1445 409.059 37.3833 414.144 34.2029 416.602" stroke="#F8BC00" stroke-width="1.19344" stroke-miterlimit="10"/>
<path d="M14.7673 386.281C23.9179 401.889 32.8824 404.85 32.8824 404.85" stroke="#F8BC00" stroke-width="1.19344" stroke-miterlimit="10"/>
<path d="M442.983 473.501C442.983 478.586 346.865 482.702 228.317 482.702C109.769 482.702 13.6514 478.586 13.6514 473.501C13.6514 468.417 109.769 464.301 228.317 464.301C346.865 464.301 442.983 468.417 442.983 473.501Z" fill="#F4C634"/>
<path d="M235.515 367.395H211.746V376.13H235.515V367.395Z" fill="#B08500"/>
<path d="M230.251 371.418H216.99V380.153H230.251V371.418Z" fill="#B08500"/>
<path d="M226.16 378.57H221.101V454.187H226.16V378.57Z" fill="#B08500"/>
<path d="M188.962 452.939H257.963C258.986 452.939 259.805 453.778 259.805 454.783V455.64C259.805 456.664 258.968 457.484 257.963 457.484H188.962C187.939 457.484 187.121 456.646 187.121 455.64V454.783C187.121 453.759 187.958 452.939 188.962 452.939Z" fill="#B08500"/>
<path d="M274.386 350.931H170.959V368.345H274.386V350.931Z" fill="#002B3D"/>
<path d="M176.073 200.441H270.889C278.422 200.441 284.206 208.543 283.164 217.632L269.829 344.822H177.115L163.78 217.632C162.738 208.543 168.522 200.441 176.055 200.441H176.073Z" fill="#012433"/>
<path d="M276.767 260.712C277.789 264.865 278.738 282.168 252.421 297.384C258.205 288.388 263.71 268.273 262.26 260.712C269.848 259.575 276.767 260.712 276.767 260.712Z" fill="white"/>
<path d="M167.685 260.712C166.662 264.865 165.714 282.168 192.031 297.384C186.247 288.388 180.742 268.273 182.192 260.712C174.604 259.575 167.685 260.712 167.685 260.712Z" fill="white"/>
<path d="M188.944 212.082C194.058 210.033 228.243 203.384 255.545 212.082C254.69 265.293 253.072 324.39 253.072 324.39H194.263L188.944 212.082Z" fill="white"/>
<path d="M227.759 279.299L221.733 287.122L215.707 279.299L220.004 226.628H223.444L227.759 279.299Z" fill="#002838"/>
<path d="M254.169 211.635C261.869 212.827 273.307 231.862 277.343 263.356C272.489 265.331 259.953 262.146 259.953 262.146L251.51 238.771L254.169 211.635Z" fill="white"/>
<path d="M190.283 211.635C182.936 213.069 171.982 234.208 167.351 262.388C172.205 264.362 184.443 262.109 184.443 262.109L192.887 238.734L190.301 211.654L190.283 211.635Z" fill="white"/>
<path d="M182.583 258.868L179.849 261.401L191.901 299.563H253.425L266.221 261.624L263.487 259.073L182.583 258.868Z" fill="#BCBBBB"/>
<path d="M179.849 261.401L191.901 302.972H253.425L266.221 261.624L179.849 261.401Z" fill="#939393"/>
<path d="M220.896 288.854C223.187 288.854 225.044 286.778 225.044 284.216C225.044 281.655 223.187 279.579 220.896 279.579C218.605 279.579 216.749 281.655 216.749 284.216C216.749 286.778 218.605 288.854 220.896 288.854Z" fill="white"/>
<path d="M191.268 352.644H258.41L260.92 323.31H186.47L191.268 352.644Z" fill="#0E1B2F"/>
<path d="M230.939 216.999C230.939 216.999 228.894 220.016 221.882 220.016C214.87 220.016 212.992 216.999 212.992 216.999V208.152H230.939V216.999Z" fill="#E7BFA7"/>
<path d="M230.939 210.778C230.939 210.778 229.489 212.734 221.882 212.734C214.275 212.734 212.992 210.778 212.992 210.778V200.684H230.939V210.778Z" fill="#DFA994"/>
<path d="M199.88 168.537C202.019 174.069 201.963 178.315 198.355 179.917C194.746 181.518 186.972 179.414 184.852 173.882C182.713 168.351 183.922 162.577 187.512 160.975C191.12 159.373 197.741 163.005 199.88 168.537Z" fill="#E7BFA7"/>
<path d="M190.99 175.112C193.891 194.034 207.356 206.737 226.364 205.06C243.661 203.533 255.62 179.339 256.103 157.25C256.587 135.18 244.777 117.71 223.891 118.026C191.919 118.529 184.889 135.236 190.99 175.112Z" fill="#E7BFA7"/>
<path d="M245.893 166.786C243.698 172.281 243.679 176.546 247.269 178.185C250.84 179.824 258.651 177.812 260.846 172.318C263.041 166.823 261.925 161.031 258.335 159.373C254.764 157.734 248.069 161.273 245.874 166.786H245.893Z" fill="#E7BFA7"/>
<path d="M218.2 164.775C223.258 163.769 227.536 164.588 228.485 168.351C229.433 172.113 224.318 174.404 220.097 174.907C215.893 175.41 214.257 165.557 218.2 164.775Z" fill="url(#paint0_linear_14_81)"/>
<path d="M215.986 165.501C217.902 164.7 220.004 164.216 222.142 164.253C224.244 164.309 226.569 164.775 228.187 166.544C228.968 167.438 229.322 168.816 228.912 169.971C228.54 171.126 227.778 172.001 226.941 172.672C225.248 174.05 223.24 174.795 221.25 175.354C223.091 174.404 224.914 173.379 226.346 172.02C227.815 170.716 228.596 168.649 227.294 167.308C226.104 165.948 224.04 165.352 222.087 165.166C220.097 164.98 218.032 165.166 215.986 165.52V165.501Z" fill="#A56052"/>
<path d="M216.005 151.067C216.47 154.55 218.423 164.756 208.64 165.557C198.857 166.358 201.182 154.55 201.182 154.55C201.182 154.55 211.523 151.514 215.986 151.067H216.005Z" fill="url(#paint1_linear_14_81)"/>
<path d="M212.75 164.551C212.564 165.259 211.839 165.687 211.132 165.501C210.425 165.315 209.997 164.588 210.183 163.881C210.369 163.173 211.095 162.745 211.801 162.931C212.508 163.117 212.936 163.843 212.75 164.551Z" fill="#643619"/>
<path d="M213.885 150.452C202.688 151.234 196.532 155.686 203.655 155.63C210.779 155.574 221.268 149.931 213.885 150.452Z" fill="#984D1D"/>
<path d="M226.978 151.067C226.513 154.55 224.56 164.756 234.343 165.557C244.126 166.358 241.801 154.55 241.801 154.55C241.801 154.55 231.46 151.514 226.997 151.067H226.978Z" fill="url(#paint2_linear_14_81)"/>
<path d="M230.233 164.551C230.419 165.259 231.144 165.687 231.851 165.501C232.558 165.315 232.985 164.588 232.799 163.881C232.613 163.173 231.888 162.745 231.181 162.931C230.475 163.117 230.047 163.843 230.233 164.551Z" fill="#643619"/>
<path d="M229.098 150.452C240.295 151.234 246.451 155.686 239.328 155.63C232.204 155.574 221.715 149.931 229.098 150.452Z" fill="#984D1D"/>
<path d="M202.967 168.164C202.967 168.909 201.014 169.524 198.615 169.524C196.216 169.524 194.263 168.909 194.263 168.164C194.263 167.419 196.216 166.805 198.615 166.805C201.014 166.805 202.967 167.419 202.967 168.164Z" fill="#F3A19C"/>
<path d="M248.906 168.164C248.906 168.909 246.953 169.524 244.554 169.524C242.155 169.524 240.202 168.909 240.202 168.164C240.202 167.419 242.155 166.805 244.554 166.805C246.953 166.805 248.906 167.419 248.906 168.164Z" fill="#F3A19C"/>
<path d="M210.574 115.959L214.071 113.444C218.739 109.57 234.38 105.566 240.053 110.222C238.714 110.241 239.644 111.042 238.286 111.116C246.097 112.867 258.912 116.22 259.805 133.28C260.214 141.009 259.023 151.7 257.554 159.075C255.769 159.262 255.862 158.442 254.43 159.597C253.332 160.491 253.072 160.938 252.663 161.739C253.016 153.078 250.208 141.345 243.959 134.509C241.039 131.324 233.246 132.74 229.024 131.846C223.723 130.71 218.776 128.829 214.721 125.383C210.016 121.379 207.263 119.255 210.555 115.977L210.574 115.959Z" fill="#AF6523"/>
<path d="M217.288 113.277C222.347 115.009 228.912 116.35 231.776 121.23L230.214 120.764C235.515 127.115 219.762 144.418 215.689 148.552C211.039 153.264 205.013 155.648 199.229 157.045C199.099 156.021 199.229 154.903 199.452 153.842C199.694 153.246 199.861 152.65 199.917 152.166C199.75 152.687 199.582 153.264 199.452 153.842C198.801 155.481 197.629 157.306 196.699 158.275C194.542 160.51 189.427 167.457 188.925 172.858C181.876 144.753 180.556 128.475 193.649 116.667C200.289 110.669 213.81 112.085 217.288 113.277Z" fill="#AF6523"/>
<path d="M212.174 183.753C211.727 185.579 212.676 187.348 213.717 188.689C214.833 190.049 216.377 190.98 218.069 191.464C219.762 191.948 221.566 192.097 223.37 192.06C224.281 192.042 225.193 191.93 226.104 191.874C227.015 191.762 227.927 191.595 228.857 191.501C227.982 191.837 227.09 192.116 226.197 192.414C225.286 192.6 224.356 192.842 223.426 192.936C221.547 193.159 219.594 193.066 217.716 192.544C215.856 191.986 214.089 190.868 212.992 189.211C211.913 187.627 211.262 185.467 212.155 183.735L212.174 183.753Z" fill="#46271E"/>
<path d="M184.592 322.472C172.484 322.472 163.631 340.37 170.94 368.345C178.249 396.32 194.263 452.753 194.263 452.753H210.016C210.016 452.753 209.272 382.183 207.486 363.465C205.701 344.766 202.614 322.472 184.592 322.472Z" fill="#434343"/>
<path d="M262.278 322.472C274.386 322.472 283.239 340.37 275.93 368.345C268.62 396.32 253.016 451.803 253.016 451.803H237.263C237.263 451.803 237.598 382.165 239.383 363.465C241.169 344.766 244.256 322.472 262.278 322.472Z" fill="#434343"/>
<path d="M189.539 469.665C190.357 461.339 191.008 448.935 202.372 448.935C213.736 448.935 215.205 456.311 216.339 469.218C212.917 474.246 196.458 473.669 189.539 469.665Z" fill="#1D1D1B"/>
<path d="M189.967 465.493C189.799 466.945 189.669 468.361 189.539 469.665C196.458 473.669 212.899 474.246 216.339 469.218C216.209 467.839 216.079 466.517 215.949 465.269C211.95 469.721 196.867 469.18 189.967 465.493Z" fill="white"/>
<path d="M257.647 469.665C256.829 461.339 256.178 448.935 244.814 448.935C233.45 448.935 231.981 456.311 230.846 469.218C234.269 474.246 250.728 473.669 257.647 469.665Z" fill="#1D1D1B"/>
<path d="M257.219 465.493C257.387 466.945 257.517 468.361 257.647 469.665C250.728 473.669 234.269 474.246 230.846 469.218C230.977 467.839 231.107 466.517 231.237 465.269C235.236 469.721 250.319 469.18 257.219 465.493Z" fill="white"/>
<path d="M216.265 219.774C216.265 219.774 223.705 220.519 227.443 219.606C227.61 222.996 225.471 226.386 223.872 227.056H219.464C219.464 227.056 215.465 224.859 216.246 219.793L216.265 219.774Z" fill="#002838"/>
<path d="M363.381 474.265H369.927L375.061 310.161H358.247L363.381 474.265Z" fill="#B4B4B4"/>
<path d="M80.3649 474.265H86.9116L92.0263 310.161H75.2317L80.3649 474.265Z" fill="#B4B4B4"/>
<path d="M400.522 302.767H49.7701C46.3804 302.767 43.6326 305.518 43.6326 308.913V311.744C43.6326 315.138 46.3804 317.89 49.7701 317.89H400.522C403.912 317.89 406.66 315.138 406.66 311.744V308.913C406.66 305.518 403.912 302.767 400.522 302.767Z" fill="#575857"/>
<path d="M216.191 225.809C216.191 225.809 219.65 222.568 221.919 220.053C216.284 218.396 212.75 210.089 212.992 205.638L207.896 208.58C207.896 208.58 204.845 219.327 216.191 225.827V225.809Z" fill="#D0D0D0"/>
<path d="M227.443 225.66C227.443 225.66 224.244 222.512 222.012 220.053C226.457 217.744 231.181 210.089 230.94 205.638L236.036 208.58C236.036 208.58 236.556 221.581 227.443 225.66Z" fill="#D0D0D0"/>
<path d="M328.285 91.02C328.973 105.585 317.74 117.933 303.214 118.622C288.67 119.311 276.339 108.062 275.651 93.5157C274.963 78.951 286.196 66.6027 300.722 65.9136C315.266 65.2245 327.597 76.4739 328.285 91.02Z" fill="#B87800"/>
<path d="M294.348 90.1572L291.234 89.0883L286.79 102.073L289.904 103.142L294.348 90.1572Z" fill="white"/>
<path d="M301.482 87.6937L298.368 86.6248L292.422 103.997L295.536 105.066L301.482 87.6937Z" fill="white"/>
<path d="M307.65 87.9932L304.536 86.9243L298.029 105.935L301.143 107.004L307.65 87.9932Z" fill="white"/>
<path d="M312.025 93.5935L308.911 92.5246L303.659 107.87L306.773 108.939L312.025 93.5935Z" fill="white"/>
<path d="M287.628 86.6245L287.201 85.6932L300.852 79.3608L309.798 84.8365L318.949 81.633L319.283 82.6201L309.668 85.9726L300.778 80.5342L287.628 86.6245Z" fill="white"/>
<path d="M288.372 87.1646C288.056 88.0959 287.052 88.5801 286.122 88.2635C285.192 87.9469 284.708 86.9411 285.025 86.0099C285.341 85.0786 286.345 84.5944 287.275 84.911C288.205 85.2276 288.689 86.2334 288.372 87.1646Z" fill="white"/>
<path d="M311.416 85.8236C311.1 86.7549 310.096 87.2391 309.166 86.9225C308.236 86.6059 307.752 85.6001 308.068 84.6689C308.385 83.7376 309.389 83.2534 310.319 83.57C311.249 83.8866 311.732 84.8924 311.416 85.8236Z" fill="white"/>
<path d="M302.507 80.5714C302.191 81.5027 301.187 81.9869 300.257 81.6703C299.327 81.3537 298.843 80.3479 299.16 79.4167C299.476 78.4854 300.48 78.0012 301.41 78.3178C302.34 78.6344 302.824 79.6402 302.507 80.5714Z" fill="white"/>
<path d="M320.883 82.7319C320.567 83.6631 319.562 84.1474 318.632 83.8308C317.703 83.5141 317.219 82.5084 317.535 81.5772C317.851 80.6459 318.856 80.1617 319.786 80.4783C320.716 80.7949 321.199 81.8007 320.883 82.7319Z" fill="white"/>
<path d="M180.816 104.787C184.941 85.5371 172.701 66.5838 153.479 62.4535C134.256 58.3232 115.33 70.5799 111.205 89.8297C107.081 109.079 119.32 128.033 138.543 132.163C157.765 136.293 176.692 124.037 180.816 104.787Z" fill="#FFD95D"/>
<path d="M157.754 116.555C155.82 117.709 153.327 117.076 152.174 115.158L147.19 106.814L154.164 102.642L159.149 110.986C160.302 112.923 159.67 115.419 157.754 116.573V116.555Z" fill="white"/>
<path d="M153.197 85.7678C155.708 89.9584 155.336 95.0802 152.695 98.8238C152.249 99.4571 152.063 101.58 153.997 104.821C155.113 106.684 149.533 108.751 149.087 107.987C146.948 104.411 146.483 103.406 145.107 103.666C140.346 104.542 135.324 102.456 132.702 98.0416C129.317 92.3796 131.158 85.0228 136.812 81.633C142.466 78.2433 149.812 80.0872 153.197 85.7491V85.7678Z" stroke="white" stroke-width="0.927044" stroke-miterlimit="10"/>
<path d="M132.572 75.4682L134.655 78.9324" stroke="white" stroke-width="0.927044" stroke-miterlimit="10" stroke-linecap="round"/>
<path d="M148.548 73.5312L147.562 77.461" stroke="white" stroke-width="0.927044" stroke-miterlimit="10" stroke-linecap="round"/>
<path d="M124.983 87.6489L128.889 88.636" stroke="white" stroke-width="0.927044" stroke-miterlimit="10" stroke-linecap="round"/>
<path d="M162.255 96.4957L158.331 95.5086" stroke="white" stroke-width="0.927044" stroke-miterlimit="10" stroke-linecap="round"/>
<path d="M138.69 110.613L139.676 106.684" stroke="white" stroke-width="0.927044" stroke-miterlimit="10" stroke-linecap="round"/>
<path d="M159.577 81.1115L156.117 83.1975" stroke="white" stroke-width="0.927044" stroke-miterlimit="10" stroke-linecap="round"/>
<path d="M128.889 99.4943L125.43 101.562" stroke="white" stroke-width="0.927044" stroke-miterlimit="10" stroke-linecap="round"/>
<path d="M332.451 160.547C332.061 159.932 331.596 159.318 331.075 158.703C330.647 158.163 330.126 157.604 329.531 157.045C328.936 156.468 328.304 155.965 327.653 155.499L326.072 158.964C326.276 159.113 326.481 159.299 326.704 159.504C326.927 159.709 327.15 159.914 327.392 160.118C328.471 161.087 329.401 162.018 330.219 162.949C331.019 163.881 331.633 164.812 332.061 165.78C332.488 166.73 332.693 167.755 332.656 168.835C332.637 169.915 332.321 171.089 331.726 172.374C331.038 173.882 330.182 175.056 329.159 175.875C328.136 176.695 327.057 177.253 325.886 177.533C324.714 177.812 323.505 177.887 322.24 177.719C320.976 177.551 319.748 177.253 318.539 176.788L316.4 181.444L313.332 180.029L315.508 175.298C313.815 174.329 312.216 173.175 310.728 171.834C309.24 170.493 307.994 169.096 306.971 167.643L313.22 162.558C313.722 163.322 314.262 164.067 314.875 164.812C315.396 165.445 316.01 166.134 316.754 166.861C317.479 167.587 318.298 168.22 319.153 168.779L320.697 165.389C319.99 164.812 319.32 164.216 318.651 163.564C317.628 162.596 316.791 161.683 316.14 160.808C315.489 159.932 315.024 159.057 314.727 158.2C314.429 157.343 314.336 156.468 314.41 155.574C314.503 154.68 314.764 153.73 315.229 152.743C315.861 151.365 316.661 150.247 317.609 149.391C318.558 148.534 319.599 147.901 320.753 147.509C321.906 147.1 323.115 146.913 324.379 146.951C325.644 146.988 326.927 147.211 328.192 147.64L329.977 143.747L333.046 145.163L331.242 149.093C332.042 149.577 332.786 150.117 333.493 150.676C334.199 151.253 334.85 151.83 335.445 152.445C336.059 153.06 336.617 153.656 337.119 154.233C337.622 154.829 338.086 155.369 338.514 155.872L332.451 160.584V160.547ZM323.561 155.071C323.394 155.462 323.375 155.835 323.505 156.189C323.654 156.542 323.933 156.952 324.342 157.399L325.681 154.475C324.602 154.14 323.877 154.326 323.542 155.071H323.561ZM323.319 169.394C323.487 169.04 323.468 168.649 323.301 168.239C323.115 167.829 322.817 167.401 322.408 166.954L321.106 169.803C321.738 170.027 322.24 170.101 322.594 170.027C322.947 169.934 323.189 169.729 323.338 169.394H323.319Z" fill="white"/>
<path d="M140.438 178.259C140.029 178.222 139.583 178.203 139.137 178.222C138.746 178.222 138.318 178.259 137.853 178.315C137.388 178.371 136.942 178.464 136.514 178.594L137.463 180.531C137.611 180.494 137.76 180.476 137.928 180.457C138.095 180.438 138.262 180.401 138.448 180.364C139.248 180.233 140.011 180.159 140.699 180.122C141.387 180.103 142.019 180.159 142.596 180.308C143.172 180.457 143.693 180.736 144.158 181.127C144.623 181.519 145.032 182.077 145.386 182.785C145.795 183.623 146.018 184.424 146.018 185.169C146.018 185.914 145.869 186.584 145.59 187.199C145.293 187.814 144.902 188.372 144.381 188.875C143.861 189.378 143.284 189.807 142.652 190.179L143.935 192.768L142.224 193.625L140.922 190.98C139.899 191.39 138.82 191.688 137.704 191.855C136.589 192.023 135.528 192.097 134.524 192.023V187.46C135.008 187.516 135.547 187.534 136.086 187.534C136.551 187.534 137.072 187.497 137.649 187.441C138.225 187.367 138.802 187.255 139.341 187.069L138.411 185.188C137.909 185.299 137.407 185.374 136.886 185.448C136.105 185.56 135.398 185.597 134.784 185.579C134.171 185.56 133.613 185.448 133.129 185.281C132.646 185.094 132.218 184.834 131.864 184.48C131.493 184.126 131.176 183.66 130.897 183.12C130.507 182.357 130.302 181.593 130.265 180.885C130.228 180.159 130.321 179.47 130.563 178.837C130.786 178.185 131.139 177.589 131.604 177.03C132.069 176.471 132.627 176.006 133.259 175.596L132.181 173.435L133.892 172.579L134.97 174.758C135.473 174.59 135.975 174.441 136.477 174.329C136.979 174.218 137.463 174.143 137.946 174.087C138.43 174.031 138.895 173.994 139.323 173.994C139.769 173.994 140.159 173.975 140.531 173.957L140.438 178.315V178.259ZM134.877 180.233C134.989 180.457 135.138 180.587 135.361 180.662C135.566 180.718 135.845 180.736 136.198 180.718L135.398 179.079C134.859 179.433 134.691 179.824 134.896 180.233H134.877ZM141.089 185.43C140.996 185.225 140.81 185.094 140.569 185.039C140.327 184.964 140.029 184.964 139.695 184.983L140.476 186.566C140.81 186.361 141.015 186.175 141.089 185.988C141.182 185.802 141.164 185.616 141.089 185.43Z" fill="white"/>
<path d="M266.686 31.1409C266.351 30.8987 265.979 30.6566 265.589 30.4331C265.254 30.2283 264.864 30.042 264.454 29.8558C264.027 29.6695 263.599 29.5205 263.152 29.4088L262.985 31.5506C263.134 31.5879 263.264 31.6437 263.431 31.7182C263.58 31.7927 263.748 31.8486 263.915 31.9045C264.678 32.2025 265.366 32.5191 265.961 32.8544C266.556 33.1896 267.077 33.5621 267.486 33.9905C267.895 34.4189 268.211 34.9217 268.397 35.4991C268.583 36.0765 268.658 36.7656 268.602 37.5665C268.527 38.4977 268.304 39.2986 267.932 39.9318C267.56 40.5651 267.077 41.068 266.519 41.4591C265.961 41.8316 265.329 42.111 264.622 42.2786C263.915 42.4462 263.208 42.5207 262.464 42.5021L262.241 45.3889L260.325 45.2399L260.549 42.2972C259.451 42.111 258.391 41.813 257.331 41.4032C256.271 40.9748 255.341 40.4906 254.523 39.9132L256.848 35.9834C257.257 36.2814 257.703 36.5794 258.168 36.8587C258.559 37.1009 259.024 37.343 259.563 37.5851C260.102 37.8272 260.642 38.0135 261.218 38.1438L261.386 36.0392C260.902 35.8716 260.418 35.6854 259.935 35.4619C259.21 35.1452 258.577 34.8286 258.075 34.4934C257.554 34.1581 257.145 33.7856 256.81 33.3759C256.494 32.9661 256.271 32.5191 256.141 32.0349C256.011 31.5506 255.973 30.9919 256.029 30.3586C256.104 29.5019 256.308 28.7569 256.643 28.105C256.978 27.4718 257.424 26.9316 257.945 26.4846C258.484 26.0376 259.079 25.7024 259.768 25.4789C260.456 25.2368 261.162 25.125 261.925 25.0878L262.111 22.6665L264.027 22.8155L263.841 25.2554C264.361 25.3671 264.864 25.4975 265.347 25.6651C265.831 25.8328 266.296 26.019 266.723 26.2239C267.17 26.4288 267.579 26.6336 267.951 26.8571C268.342 27.062 268.695 27.2669 269.011 27.4531L266.705 31.1409H266.686ZM260.902 29.9675C260.883 30.2096 260.939 30.4145 261.088 30.5635C261.237 30.7311 261.46 30.8801 261.776 31.0291L261.925 29.2225C261.274 29.2598 260.939 29.5019 260.902 29.9675ZM263.562 37.6223C263.562 37.3988 263.506 37.194 263.32 37.0077C263.134 36.8215 262.892 36.6539 262.595 36.5049L262.464 38.2742C262.855 38.2742 263.134 38.2183 263.301 38.1066C263.469 37.9948 263.562 37.8272 263.58 37.6223H263.562Z" fill="white"/>
<path d="M240.481 77.3865C237.989 82.0428 233.097 85.209 227.462 85.209C219.315 85.209 212.694 78.5972 212.694 70.4208C212.694 62.2445 219.297 55.6326 227.462 55.6326C229.508 55.6326 231.442 56.0424 233.209 56.7874" stroke="#FFFACC" stroke-width="2.56802" stroke-miterlimit="10"/>
<path d="M240.63 63.7345C241.652 65.746 242.229 68.0182 242.229 70.4208C242.229 72.8234 241.597 75.3192 240.481 77.3865" stroke="#FFF6D9" stroke-width="2.56802" stroke-miterlimit="10"/>
<path d="M233.208 56.806C236.426 58.1656 239.067 60.6427 240.629 63.7345" stroke="#FFC861" stroke-width="2.56802" stroke-miterlimit="10"/>
<path d="M45.0276 171.983L59.7019 150.303L67.4204 161.776L84.1219 141.102" stroke="#FFF374" stroke-width="2.70654" stroke-miterlimit="10"/>
<path d="M89.1436 148.366L91.8032 131.622L75.9944 137.694L89.1436 148.366Z" fill="#FFF374"/>
<path d="M327.243 235.102L338.812 218.005L344.894 227.038L358.08 210.76" stroke="#FFF374" stroke-width="2.13114" stroke-miterlimit="10"/>
<path d="M362.041 216.477L364.124 203.272L351.663 208.059L362.041 216.477Z" fill="#FFF374"/>
<path d="M281.639 148.217C283.293 148.217 284.634 146.875 284.634 145.219C284.634 143.562 283.293 142.22 281.639 142.22C279.986 142.22 278.645 143.562 278.645 145.219C278.645 146.875 279.986 148.217 281.639 148.217Z" fill="white"/>
<path d="M371.992 102.493C371.992 104.151 370.653 105.492 368.998 105.492C367.342 105.492 366.003 104.151 366.003 102.493C366.003 100.835 367.342 99.4943 368.998 99.4943C370.653 99.4943 371.992 100.835 371.992 102.493Z" fill="white"/>
<path d="M269.309 65.0941C269.309 65.8391 268.713 66.4351 267.969 66.4351C267.226 66.4351 266.63 65.8391 266.63 65.0941C266.63 64.3491 267.226 63.7531 267.969 63.7531C268.713 63.7531 269.309 64.3491 269.309 65.0941Z" fill="white"/>
<path d="M183.625 46.7299C183.625 48.2013 182.434 49.3933 180.965 49.3933C179.496 49.3933 178.305 48.2013 178.305 46.7299C178.305 45.2586 179.496 44.0666 180.965 44.0666C182.434 44.0666 183.625 45.2586 183.625 46.7299Z" fill="white"/>
<path d="M220.301 6.66772C222.14 6.66772 223.63 5.1751 223.63 3.33386C223.63 1.49262 222.14 0 220.301 0C218.462 0 216.972 1.49262 216.972 3.33386C216.972 5.1751 218.462 6.66772 220.301 6.66772Z" fill="white"/>
<path d="M336.32 21.698C336.32 23.3556 334.98 24.6966 333.325 24.6966C331.67 24.6966 330.331 23.3556 330.331 21.698C330.331 20.0404 331.67 18.6994 333.325 18.6994C334.98 18.6994 336.32 20.0404 336.32 21.698Z" fill="white"/>
<path d="M370.318 177.942C370.318 179.228 369.276 180.271 367.993 180.271C366.71 180.271 365.668 179.228 365.668 177.942C365.668 176.657 366.71 175.614 367.993 175.614C369.276 175.614 370.318 176.657 370.318 177.942Z" fill="white"/>
<path d="M302.972 266.076C302.972 267.361 301.931 268.404 300.647 268.404C299.364 268.404 298.323 267.361 298.323 266.076C298.323 264.791 299.364 263.748 300.647 263.748C301.931 263.748 302.972 264.791 302.972 266.076Z" fill="white"/>
<path d="M318.651 206.308C318.651 207.593 317.609 208.636 316.326 208.636C315.043 208.636 314.001 207.593 314.001 206.308C314.001 205.023 315.043 203.98 316.326 203.98C317.609 203.98 318.651 205.023 318.651 206.308Z" fill="white"/>
<path d="M141.964 233.352C143.248 233.352 144.289 232.309 144.289 231.024C144.289 229.738 143.248 228.695 141.964 228.695C140.68 228.695 139.639 229.738 139.639 231.024C139.639 232.309 140.68 233.352 141.964 233.352Z" fill="white"/>
<path d="M162.962 159.578C164.985 159.578 166.625 157.936 166.625 155.909C166.625 153.883 164.985 152.24 162.962 152.24C160.938 152.24 159.298 153.883 159.298 155.909C159.298 157.936 160.938 159.578 162.962 159.578Z" fill="white"/>
<path d="M90.6128 189.956C90.6128 192.358 88.6785 194.295 86.2793 194.295C83.8801 194.295 81.9458 192.358 81.9458 189.956C81.9458 187.553 83.8801 185.616 86.2793 185.616C88.6785 185.616 90.6128 187.553 90.6128 189.956Z" fill="white"/>
<path d="M60.948 257.396C61.6876 257.396 62.2871 256.796 62.2871 256.055C62.2871 255.315 61.6876 254.714 60.948 254.714C60.2084 254.714 59.6089 255.315 59.6089 256.055C59.6089 256.796 60.2084 257.396 60.948 257.396Z" fill="white"/>
<path d="M12.2753 176.937C12.2753 179.153 10.4898 180.941 8.27654 180.941C6.0633 180.941 4.27783 179.153 4.27783 176.937C4.27783 174.72 6.0633 172.932 8.27654 172.932C10.4898 172.932 12.2753 174.72 12.2753 176.937Z" fill="white"/>
<path d="M68.6106 91.467C70.2643 91.467 71.605 90.1245 71.605 88.4684C71.605 86.8123 70.2643 85.4698 68.6106 85.4698C66.9568 85.4698 65.6162 86.8123 65.6162 88.4684C65.6162 90.1245 66.9568 91.467 68.6106 91.467Z" fill="white"/>
<path d="M22.9323 106.497C22.9323 107.596 22.0396 108.509 20.9237 108.509C19.8078 108.509 18.915 107.615 18.915 106.497C18.915 105.38 19.8078 104.486 20.9237 104.486C22.0396 104.486 22.9323 105.38 22.9323 106.497Z" fill="white"/>
<path d="M102.944 24.38C102.944 25.6651 101.902 26.7081 100.619 26.7081C99.3355 26.7081 98.2939 25.6651 98.2939 24.38C98.2939 23.0949 99.3355 22.0519 100.619 22.0519C101.902 22.0519 102.944 23.0949 102.944 24.38Z" fill="white"/>
<path d="M117.134 263.319C118.316 263.319 119.273 262.36 119.273 261.177C119.273 259.994 118.316 259.035 117.134 259.035C115.953 259.035 114.996 259.994 114.996 261.177C114.996 262.36 115.953 263.319 117.134 263.319Z" fill="white"/>
<path d="M359.828 264.362C359.828 266.113 358.415 267.528 356.667 267.528C354.918 267.528 353.505 266.113 353.505 264.362C353.505 262.611 354.918 261.196 356.667 261.196C358.415 261.196 359.828 262.611 359.828 264.362Z" fill="white"/>
</g>
<defs>
<linearGradient id="paint0_linear_14_81" x1="228.14" y1="167.138" x2="219.023" y2="169.976" gradientUnits="userSpaceOnUse">
<stop stop-color="#D28178"/>
<stop offset="1" stop-color="#F6B9AD" stop-opacity="0"/>
</linearGradient>
<linearGradient id="paint1_linear_14_81" x1="208.561" y1="151.64" x2="208.952" y2="163.555" gradientUnits="userSpaceOnUse">
<stop stop-color="#D99B68"/>
<stop offset="1" stop-color="#D99B68" stop-opacity="0"/>
</linearGradient>
<linearGradient id="paint2_linear_14_81" x1="234.42" y1="151.648" x2="234.029" y2="163.564" gradientUnits="userSpaceOnUse">
<stop stop-color="#D99B68"/>
<stop offset="1" stop-color="#D99B68" stop-opacity="0"/>
</linearGradient>
<clipPath id="clip0_14_81">
<rect width="490" height="482.702" fill="white"/>
</clipPath>
</defs>
</svg>

