<svg xmlns="http://www.w3.org/2000/svg" width="60" height="60" viewBox="0 0 60 60" fill="none">
  <g clip-path="url(#clip0_14_297)">
    <path d="M42.4219 0H17.5781C7.86999 0 0 7.86999 0 17.5781V42.4219C0 52.13 7.86999 60 17.5781 60H42.4219C52.13 60 60 52.13 60 42.4219V17.5781C60 7.86999 52.13 0 42.4219 0Z" fill="#F4C634"/>
    <path d="M44.9051 16.6441H32.4457C31.548 16.6441 30.6879 16.2879 30.0527 15.6539L26.6238 12.2309C25.9945 11.6027 25.1426 11.2465 24.2531 11.2406L15.1406 11.1797C11.3812 11.1551 8.32031 14.1949 8.32031 17.9543V42.0445C8.32031 45.7863 11.3531 48.8191 15.0949 48.8191H44.9039C48.6457 48.8191 51.6785 45.7863 51.6785 42.0445V23.4187C51.6785 19.6769 48.6457 16.6441 44.9039 16.6441H44.9051ZM30 20.6754C33.2543 20.6754 35.8922 23.3133 35.8922 26.5676C35.8922 29.8219 33.2543 32.4598 30 32.4598C26.7457 32.4598 24.1078 29.8219 24.1078 26.5676C24.1078 23.3133 26.7457 20.6754 30 20.6754ZM38.8371 44.8113H21.1629C19.5656 44.8113 18.4312 43.2562 18.9187 41.7352L20.6613 36.2953C21.3141 34.2598 23.5254 33.1734 25.5352 33.9C26.7187 34.3277 28.2082 34.6523 30 34.6523C31.7918 34.6523 33.2812 34.3277 34.4648 33.9C36.4746 33.1734 38.6871 34.2598 39.3387 36.2953L41.0812 41.7352C41.5687 43.2562 40.4344 44.8113 38.8371 44.8113Z" fill="white"/>
  </g>
  <defs>
    <clipPath id="clip0_14_297">
      <rect width="60" height="60" fill="white"/>
    </clipPath>
  </defs>
</svg>