<?xml version="1.0" standalone="no"?>
<!DOCTYPE svg PUBLIC "-//W3C//DTD SVG 20010904//EN"
 "http://www.w3.org/TR/2001/REC-SVG-20010904/DTD/svg10.dtd">
<svg version="1.0" xmlns="http://www.w3.org/2000/svg"
 width="512.000000pt" height="512.000000pt" viewBox="0 0 512.000000 512.000000"
 preserveAspectRatio="xMidYMid meet">

<g transform="translate(0.000000,512.000000) scale(0.100000,-0.100000)"
fill="#000000" stroke="none">
<path d="M1050 5006 c-86 -23 -149 -75 -192 -156 l-23 -45 -3 -2227 c-2 -2224
-2 -2227 18 -2282 24 -64 80 -124 148 -157 l47 -24 1505 0 c1227 0 1512 2
1543 13 61 22 143 104 166 168 21 55 21 60 21 2273 0 2459 5 2266 -66 2349
-19 23 -60 53 -92 69 l-57 28 -1485 2 c-1152 1 -1495 -1 -1530 -11z m2553
-679 c31 -14 57 -31 57 -37 0 -15 -52 -91 -59 -87 -53 29 -95 41 -152 41 -76
1 -109 -18 -109 -63 0 -46 26 -69 103 -91 166 -48 218 -81 237 -151 22 -81
-22 -160 -112 -199 -44 -19 -65 -22 -133 -18 -84 5 -142 26 -200 72 l-29 24
28 41 29 41 31 -21 c132 -88 276 -75 276 24 0 47 -24 65 -126 94 -165 46 -204
82 -204 186 0 124 72 179 225 174 61 -3 94 -9 138 -30z m-558 -5 c73 -39 72
-36 40 -79 -16 -21 -29 -39 -30 -40 0 -1 -23 9 -50 22 -58 30 -157 35 -193 9
-27 -18 -30 -69 -5 -96 9 -10 62 -32 117 -49 158 -48 202 -93 194 -199 -5 -72
-35 -115 -102 -146 -91 -43 -227 -27 -314 36 -23 17 -42 35 -42 41 0 6 11 25
25 44 l26 33 56 -34 c88 -53 181 -58 230 -12 50 47 19 97 -74 123 -118 33
-154 47 -184 72 -40 34 -59 73 -59 122 0 76 34 129 105 163 56 27 202 21 260
-10z m-1190 -23 c70 -35 98 -88 98 -183 0 -149 -70 -205 -265 -214 l-108 -5 0
-88 0 -89 -55 0 -55 0 0 306 0 306 168 -4 c157 -3 171 -5 217 -29z m589 -196
c55 -126 114 -263 132 -305 l33 -78 -55 0 -55 0 -31 70 -31 70 -155 -2 -155
-3 -28 -65 -27 -65 -56 -3 c-31 -2 -56 -1 -56 1 0 2 57 129 126 283 69 153
130 289 135 302 7 19 16 22 67 22 l58 0 98 -227z m209 -934 c252 -22 470 -119
650 -289 524 -494 430 -1350 -189 -1723 -422 -254 -964 -187 -1314 163 -188
187 -295 412 -319 673 -21 220 27 442 138 632 162 280 481 498 797 544 83 12
104 12 237 0z"/>
<path d="M1580 4116 l0 -126 91 0 c143 0 184 30 184 136 0 45 -4 58 -28 81
-26 27 -33 28 -137 31 l-110 4 0 -126z"/>
<path d="M2276 4179 c-8 -19 -33 -76 -55 -127 -23 -51 -41 -95 -41 -97 0 -3
52 -5 115 -5 63 0 115 1 115 3 0 6 -111 251 -116 256 -2 2 -10 -11 -18 -30z"/>
<path d="M2444 3040 c-94 -53 -176 -169 -234 -329 -23 -61 -26 -81 -16 -81 16
0 200 -17 269 -25 l47 -6 0 236 c0 129 -3 235 -7 235 -5 0 -31 -13 -59 -30z"/>
<path d="M2610 2840 l0 -230 43 0 c43 0 198 16 254 26 l31 6 -18 54 c-30 86
-96 205 -146 262 -40 45 -132 112 -156 112 -5 0 -8 -103 -8 -230z"/>
<path d="M2181 2996 c-46 -19 -121 -59 -165 -90 -95 -64 -205 -171 -191 -185
9 -8 168 -61 227 -75 25 -6 28 -3 43 47 43 130 104 247 163 310 33 35 25 34
-77 -7z"/>
<path d="M2862 3003 c59 -63 120 -180 163 -310 15 -50 18 -53 43 -47 59 14
218 67 227 75 12 12 -102 128 -175 179 -68 46 -148 87 -219 111 -69 24 -70 24
-39 -8z"/>
<path d="M1714 2599 c-62 -98 -119 -270 -130 -390 l-7 -69 212 0 211 0 0 63
c0 62 21 227 38 304 l10 42 -77 16 c-65 15 -149 42 -213 69 -13 6 -23 -3 -44
-35z"/>
<path d="M3310 2615 c-30 -13 -96 -33 -146 -45 l-90 -22 18 -92 c9 -50 21
-142 24 -203 l7 -113 209 0 208 0 0 33 c0 56 -36 209 -69 292 -32 82 -85 176
-99 174 -4 0 -32 -11 -62 -24z"/>
<path d="M2141 2482 c-11 -48 -24 -151 -36 -274 l-7 -68 206 0 206 0 0 180 0
180 -67 0 c-66 0 -226 15 -270 25 -18 4 -22 -1 -32 -43z"/>
<path d="M2885 2520 c-33 -5 -108 -12 -167 -15 l-108 -7 0 -179 0 -179 206 0
207 0 -7 95 c-6 84 -28 229 -42 278 -3 9 -11 16 -17 16 -7 -1 -39 -5 -72 -9z"/>
<path d="M1584 1981 c11 -123 88 -343 142 -409 l19 -23 140 41 c77 23 145 43
151 45 8 2 6 31 -7 97 -10 51 -22 144 -25 206 l-7 112 -210 0 -210 0 7 -69z"/>
<path d="M2104 1943 c7 -95 37 -278 48 -288 3 -3 34 -1 68 4 35 6 114 13 176
17 l114 7 0 178 0 179 -206 0 -207 0 7 -97z"/>
<path d="M2610 1860 l0 -180 53 0 c54 0 219 -16 273 -26 23 -4 33 -1 37 10 8
21 34 204 42 299 l7 77 -206 0 -206 0 0 -180z"/>
<path d="M3116 1928 c-3 -62 -15 -155 -25 -206 l-18 -92 26 -6 c92 -20 184
-46 225 -64 26 -11 51 -20 56 -20 15 0 99 184 125 274 14 49 28 120 31 157 l7
69 -210 0 -210 0 -7 -112z"/>
<path d="M2385 1583 c-68 -5 -205 -25 -205 -29 0 -2 11 -32 24 -66 52 -139
122 -253 192 -311 32 -27 87 -57 104 -57 7 0 10 78 10 235 l0 235 -42 -2 c-24
-1 -61 -3 -83 -5z"/>
<path d="M2610 1355 c0 -157 3 -235 10 -235 17 0 72 30 104 57 70 58 140 172
192 311 13 34 24 64 24 66 0 2 -64 9 -142 15 -79 7 -153 14 -165 17 l-23 4 0
-235z"/>
<path d="M3034 1497 c-25 -80 -99 -226 -144 -284 -22 -29 -35 -53 -30 -53 30
0 181 68 244 111 70 46 206 171 206 189 0 11 -69 37 -172 65 l-87 23 -17 -51z"/>
<path d="M1990 1515 c-101 -28 -170 -54 -170 -65 0 -5 26 -35 59 -68 91 -92
215 -171 340 -213 30 -11 56 -19 58 -19 3 0 -11 19 -31 42 -44 51 -116 190
-146 281 -12 37 -22 67 -23 66 -1 0 -40 -11 -87 -24z"/>
</g>
</svg>
