<?xml version="1.0" standalone="no"?>
<!DOCTYPE svg PUBLIC "-//W3C//DTD SVG 20010904//EN"
 "http://www.w3.org/TR/2001/REC-SVG-20010904/DTD/svg10.dtd">
<svg version="1.0" xmlns="http://www.w3.org/2000/svg"
 width="800.000000pt" height="800.000000pt" viewBox="0 0 800.000000 800.000000"
 preserveAspectRatio="xMidYMid meet">

<g transform="translate(0.000000,800.000000) scale(0.100000,-0.100000)"
fill="#000000" stroke="none">
<path d="M2330 6631 c-87 -27 -165 -95 -204 -180 l-21 -46 0 -1955 0 -1955 21
-46 c30 -64 88 -125 148 -157 l51 -27 962 -3 962 -2 -36 52 c-73 108 -116 228
-129 366 l-7 72 -251 0 c-290 0 -301 3 -337 86 -38 85 6 178 96 203 25 7 153
11 347 11 l307 0 46 29 c105 67 251 78 374 28 l61 -25 0 22 c0 16 -18 34 -67
66 -90 58 -214 179 -270 263 l-45 67 -736 0 c-718 0 -738 1 -770 20 -101 62
-95 212 11 260 40 19 73 20 724 20 l682 0 0 113 c0 118 7 173 39 275 l20 62
-717 0 c-662 0 -719 1 -751 18 -103 51 -108 201 -8 262 32 19 52 20 866 20
l833 0 62 44 c34 24 81 53 105 65 23 12 42 28 42 37 0 30 51 123 91 164 154
158 465 140 590 -35 l34 -47 3 188 c1 104 1 470 0 814 l-3 625 -26 55 c-34 72
-100 135 -166 160 -53 20 -78 20 -1481 19 -785 0 -1438 -4 -1452 -8z m1423
-718 c13 -16 236 -513 348 -780 39 -93 40 -111 10 -147 -25 -29 -59 -38 -97
-26 -35 12 -42 22 -111 185 l-39 90 -171 3 -170 2 -38 -87 c-68 -159 -75 -171
-110 -187 -26 -13 -39 -14 -64 -5 -30 11 -61 52 -61 82 0 24 362 841 383 865
26 28 96 31 120 5z m-406 -8 c46 -33 38 -130 -13 -154 -14 -6 -60 -11 -102
-11 l-77 0 0 -369 c-1 -339 -2 -371 -18 -389 -35 -39 -125 -34 -147 8 -6 11
-10 165 -10 383 l0 365 -91 4 c-81 3 -93 6 -110 27 -27 33 -26 104 3 131 21
19 34 20 283 20 218 0 264 -3 282 -15z m1026 -9 c12 -13 44 -69 72 -125 27
-56 52 -101 55 -101 3 0 30 50 60 111 30 61 64 117 75 125 36 26 103 13 132
-25 24 -31 12 -67 -76 -235 l-89 -170 104 -209 c57 -115 104 -215 104 -223 0
-56 -70 -105 -122 -85 -33 12 -52 41 -121 184 -32 64 -61 117 -65 117 -4 0
-35 -55 -67 -121 -33 -67 -68 -133 -79 -146 -43 -56 -121 -50 -151 13 -21 45
-21 45 98 274 l95 183 -89 179 c-49 98 -89 189 -89 202 0 15 12 34 31 50 40
34 92 35 122 2z"/>
<path d="M3648 5530 c-21 -49 -38 -94 -38 -100 0 -6 34 -10 86 -10 68 0 85 3
81 14 -23 60 -82 186 -86 186 -3 0 -23 -41 -43 -90z"/>
<path d="M5046 4740 c-62 -20 -91 -66 -104 -164 l-7 -58 -61 -22 c-93 -34
-152 -73 -229 -150 -125 -126 -175 -252 -175 -441 1 -134 10 -176 60 -280 63
-132 200 -260 368 -344 l42 -21 0 -385 c0 -280 -3 -385 -11 -385 -20 0 -82 41
-128 84 -55 52 -81 93 -115 183 -34 89 -58 120 -110 144 -55 25 -101 24 -162
-5 -90 -42 -123 -120 -104 -245 36 -232 280 -469 563 -546 l65 -17 4 -78 c7
-122 55 -170 170 -170 65 0 115 24 145 69 18 27 23 48 23 103 0 46 4 70 13 72
163 43 263 91 356 169 158 134 241 320 243 552 1 75 -4 130 -15 174 -54 204
-215 371 -501 522 l-96 51 0 284 c0 176 4 284 10 284 5 0 25 -13 43 -30 26
-22 43 -55 73 -135 46 -128 73 -163 132 -176 85 -19 168 16 213 88 48 77 23
261 -50 372 -38 58 -115 136 -169 173 -51 35 -150 81 -208 97 l-42 11 -4 65
c-4 68 -21 101 -69 137 -29 22 -120 32 -163 18z m-111 -1028 c-9 -9 -56 41
-77 81 -45 89 -30 197 40 292 l37 50 3 -209 c1 -115 0 -211 -3 -214z m490
-715 c81 -74 100 -118 92 -220 -7 -91 -24 -133 -79 -193 -37 -40 -129 -104
-150 -104 -5 0 -8 140 -8 310 l0 311 41 -23 c22 -13 69 -49 104 -81z"/>
</g>
</svg>
