<?xml version="1.0" standalone="no"?>
<!DOCTYPE svg PUBLIC "-//W3C//DTD SVG 20010904//EN"
 "http://www.w3.org/TR/2001/REC-SVG-20010904/DTD/svg10.dtd">
<svg version="1.0" xmlns="http://www.w3.org/2000/svg"
 width="612.000000pt" height="612.000000pt" viewBox="0 0 612.000000 612.000000"
 preserveAspectRatio="xMidYMid meet">

<g transform="translate(0.000000,612.000000) scale(0.100000,-0.100000)"
fill="#000000" stroke="none">
<path d="M880 4022 c-74 -39 -70 16 -70 -966 0 -863 0 -879 20 -911 43 -70
-92 -65 1748 -65 1026 0 1670 4 1686 10 13 5 92 67 174 137 82 70 189 162 238
203 49 41 152 129 229 195 77 66 201 172 275 234 151 128 165 142 181 189 9
27 8 42 -5 77 -15 38 -57 75 -378 336 -199 162 -409 332 -466 379 -57 47 -138
111 -179 143 l-75 57 -1671 0 c-1603 0 -1674 -1 -1707 -18z m1170 -607 l0 -95
-125 0 -125 0 0 -355 0 -355 -110 0 -110 0 0 355 0 355 -125 0 -125 0 0 95 0
95 360 0 360 0 0 -95z m612 13 c19 -46 100 -239 179 -430 79 -192 146 -348
149 -348 5 0 282 414 288 431 2 4 -27 52 -64 106 -37 54 -100 146 -141 205
-40 58 -73 109 -73 112 0 3 58 6 129 6 l130 0 78 -131 c44 -72 83 -132 87
-133 4 0 42 58 84 131 l77 132 128 1 c71 0 127 -3 125 -7 -1 -5 -63 -98 -137
-208 -74 -110 -134 -205 -134 -210 0 -10 270 -411 299 -446 8 -8 14 -19 14
-22 0 -4 -60 -7 -134 -7 l-135 0 -91 150 c-51 82 -95 152 -99 154 -4 3 -48
-63 -97 -147 l-90 -152 -239 -3 -240 -2 -29 77 c-16 43 -33 83 -38 90 -7 8
-58 12 -173 12 -115 0 -166 -4 -173 -12 -5 -7 -22 -47 -37 -89 l-28 -78 -118
0 c-66 0 -119 2 -119 3 0 2 68 165 151 363 82 197 166 398 186 447 l36 87 108
0 107 0 34 -82z m2036 -154 c52 -21 90 -60 118 -119 40 -85 28 -174 -35 -246
-69 -82 -180 -102 -280 -53 -127 64 -165 226 -80 344 57 78 185 113 277 74z"/>
<path d="M2462 3113 c-29 -76 -52 -141 -52 -145 0 -5 48 -8 106 -8 105 0 106
0 101 23 -8 34 -88 251 -97 260 -4 4 -30 -54 -58 -130z"/>
</g>
</svg>
