<?xml version="1.0" standalone="no"?>
<!DOCTYPE svg PUBLIC "-//W3C//DTD SVG 20010904//EN"
 "http://www.w3.org/TR/2001/REC-SVG-20010904/DTD/svg10.dtd">
<svg version="1.0" xmlns="http://www.w3.org/2000/svg"
 width="512.000000pt" height="512.000000pt" viewBox="0 0 512.000000 512.000000"
 preserveAspectRatio="xMidYMid meet">

<g transform="translate(0.000000,512.000000) scale(0.100000,-0.100000)"
fill="#000000" stroke="none">
<path d="M596 4929 l-26 -20 0 -2205 c0 -2191 0 -2204 20 -2224 20 -20 33 -20
998 -20 920 0 980 1 995 18 28 30 30 65 7 95 l-21 27 -924 0 -923 0 -6 63 c-3
34 -4 978 -3 2097 l2 2035 1593 3 1592 2 0 -970 0 -971 25 -24 c31 -32 69 -32
100 0 l25 24 0 1019 c0 989 -1 1020 -19 1043 l-19 24 -1695 3 -1694 2 -27 -21z"/>
<path d="M1292 4061 c-9 -5 -12 -27 -10 -72 l3 -64 122 -3 123 -3 2 -327 3
-327 75 0 75 0 3 327 2 327 123 3 122 3 3 64 c2 45 -1 67 -10 72 -7 5 -150 9
-318 9 -168 0 -311 -4 -318 -9z"/>
<path d="M2156 4048 c-29 -47 -289 -756 -283 -772 6 -14 19 -16 78 -14 l72 3
37 105 38 105 130 3 130 3 32 -98 c18 -54 37 -104 43 -111 7 -9 32 -12 81 -10
58 2 71 6 74 20 4 22 -266 770 -282 780 -6 4 -39 8 -73 8 -54 0 -64 -3 -77
-22z m144 -415 c0 -9 -21 -13 -70 -13 -51 0 -70 4 -70 13 0 13 56 173 67 190
6 10 73 -166 73 -190z"/>
<path d="M2663 4064 c-27 -11 -10 -46 106 -216 l119 -175 -129 -188 c-71 -104
-128 -196 -127 -204 3 -13 20 -17 84 -19 l81 -3 93 141 c51 77 97 137 100 133
4 -4 46 -68 93 -140 l86 -133 81 0 c65 0 82 3 87 16 4 10 -38 81 -121 203 -69
102 -126 190 -126 194 0 4 55 89 123 188 118 174 121 181 102 195 -14 10 -40
14 -85 12 l-65 -3 -85 -127 c-47 -70 -87 -127 -90 -127 -3 0 -43 57 -90 127
l-85 127 -70 2 c-38 1 -76 -1 -82 -3z"/>
<path d="M2880 2540 c-11 -11 -22 -30 -25 -42 -3 -13 -4 -526 -3 -1141 l3
-1119 24 -19 c22 -18 52 -19 911 -19 859 0 889 1 911 19 l24 19 3 1119 c1 615
0 1128 -3 1141 -3 12 -14 31 -25 42 -20 20 -37 20 -910 20 -873 0 -890 0 -910
-20z m1700 -1160 l0 -1030 -790 0 -790 0 0 1030 0 1030 790 0 790 0 0 -1030z"/>
<path d="M3221 2154 c-19 -25 -21 -40 -21 -200 0 -185 6 -214 47 -233 34 -15
1052 -15 1086 0 41 19 47 48 47 233 0 160 -2 175 -21 200 l-20 26 -549 0 -549
0 -20 -26z m1009 -204 l0 -90 -440 0 -440 0 0 90 0 90 440 0 440 0 0 -90z"/>
<path d="M3211 1424 c-12 -15 -21 -34 -21 -44 0 -10 9 -29 21 -44 20 -25 24
-26 125 -26 117 0 144 13 144 70 0 57 -27 70 -144 70 -101 0 -105 -1 -125 -26z"/>
<path d="M3672 1434 c-16 -11 -22 -25 -22 -53 0 -62 19 -71 142 -71 120 0 138
10 138 73 0 55 -25 67 -140 67 -70 0 -101 -4 -118 -16z"/>
<path d="M4120 1430 c-11 -11 -20 -33 -20 -50 0 -57 27 -70 144 -70 101 0 105
1 125 26 12 15 21 34 21 44 0 10 -9 29 -21 44 -20 25 -24 26 -125 26 -91 0
-107 -3 -124 -20z"/>
<path d="M3233 1100 c-47 -19 -56 -78 -18 -115 22 -23 32 -25 118 -25 80 0 98
3 121 21 34 27 35 71 1 104 -22 23 -32 25 -112 24 -48 0 -98 -4 -110 -9z"/>
<path d="M3676 1089 c-18 -14 -26 -30 -26 -52 0 -61 30 -77 140 -77 110 0 140
16 140 77 0 54 -36 73 -140 73 -73 0 -92 -3 -114 -21z"/>
<path d="M4125 1086 l-25 -25 0 -201 c0 -251 -7 -240 144 -240 101 0 105 1
125 26 20 25 21 40 21 219 0 246 4 239 -139 243 -96 4 -101 3 -126 -22z"/>
<path d="M3211 734 c-12 -15 -21 -34 -21 -44 0 -10 9 -29 21 -44 20 -25 24
-26 125 -26 117 0 144 13 144 70 0 57 -27 70 -144 70 -101 0 -105 -1 -125 -26z"/>
<path d="M3672 744 c-16 -11 -22 -25 -22 -53 0 -62 19 -71 142 -71 120 0 138
10 138 73 0 55 -25 67 -140 67 -70 0 -101 -4 -118 -16z"/>
<path d="M1221 2514 c-12 -15 -21 -34 -21 -44 0 -10 9 -29 21 -44 l20 -26 694
0 694 0 20 26 c26 34 26 54 0 88 l-20 26 -694 0 -694 0 -20 -26z"/>
<path d="M1242 1970 c-22 -9 -42 -46 -42 -76 0 -8 11 -26 25 -39 l24 -25 686
0 686 0 24 25 c30 29 32 64 6 96 l-19 24 -684 2 c-398 1 -692 -2 -706 -7z"/>
<path d="M1225 1385 c-14 -13 -25 -31 -25 -39 0 -29 23 -65 49 -76 18 -7 178
-10 518 -8 467 3 492 4 512 22 27 25 28 79 1 106 -19 19 -33 20 -525 20 l-506
0 -24 -25z"/>
</g>
</svg>
