<svg width="27" height="24" viewBox="0 0 27 24" fill="none" xmlns="http://www.w3.org/2000/svg">
<path d="M16 19L16 5" stroke="white" stroke-width="1.5" stroke-linecap="round"/>
<path d="M11 19L11 5" stroke="white" stroke-width="1.5" stroke-linecap="round"/>
<path d="M0.54546 13.0556L6.13792 13.0556L3.2508 16.0329C3.1987 16.0848 3.15715 16.1469 3.12856 16.2155C3.09997 16.2841 3.08492 16.3579 3.0843 16.4326C3.08367 16.5073 3.09747 16.5814 3.12489 16.6505C3.15232 16.7196 3.19282 16.7824 3.24404 16.8352C3.29525 16.8881 3.35615 16.9298 3.42319 16.9581C3.49022 16.9864 3.56205 17.0006 3.63447 17C3.7069 16.9993 3.77848 16.9838 3.84502 16.9543C3.91157 16.9249 3.97176 16.882 4.02208 16.8283L7.8403 12.8908C7.94256 12.7853 8 12.6422 8 12.4931C8 12.3439 7.94256 12.2009 7.8403 12.0954L4.02208 8.1579C3.9192 8.05544 3.78142 7.99874 3.6384 8.00002C3.49538 8.0013 3.35858 8.06046 3.25744 8.16475C3.15631 8.26904 3.09894 8.41013 3.0977 8.55761C3.09646 8.7051 3.15144 8.84719 3.2508 8.95328L6.13792 11.9306L0.54546 11.9306C0.400795 11.9306 0.262054 11.9899 0.159761 12.0953C0.0574674 12.2008 -5.46625e-07 12.3439 -5.59668e-07 12.4931C-5.7271e-07 12.6423 0.0574674 12.7853 0.159761 12.8908C0.262054 12.9963 0.400795 13.0556 0.54546 13.0556Z" fill="white"/>
<path d="M26.4545 11.9444L20.8621 11.9444L23.7492 8.9671C23.8013 8.91521 23.8429 8.85314 23.8714 8.78451C23.9 8.71589 23.9151 8.64208 23.9157 8.56739C23.9163 8.4927 23.9025 8.41863 23.8751 8.3495C23.8477 8.28037 23.8072 8.21757 23.756 8.16475C23.7047 8.11194 23.6438 8.07017 23.5768 8.04189C23.5098 8.0136 23.438 7.99937 23.3655 8.00002C23.2931 8.00067 23.2215 8.01619 23.155 8.04567C23.0884 8.07515 23.0282 8.118 22.9779 8.17172L19.1597 12.1092C19.0574 12.2147 19 12.3578 19 12.5069C19 12.6561 19.0574 12.7991 19.1597 12.9046L22.9779 16.8421C23.0808 16.9446 23.2186 17.0013 23.3616 17C23.5046 16.9987 23.6414 16.9395 23.7426 16.8352C23.8437 16.731 23.9011 16.5899 23.9023 16.4424C23.9035 16.2949 23.8486 16.1528 23.7492 16.0467L20.8621 13.0694L26.4545 13.0694C26.5992 13.0694 26.7379 13.0101 26.8402 12.9047C26.9425 12.7992 27 12.6561 27 12.5069C27 12.3577 26.9425 12.2147 26.8402 12.1092C26.7379 12.0037 26.5992 11.9444 26.4545 11.9444Z" fill="white"/>
</svg>
