<svg
    width="20"
    height="16"
    viewBox="0 0 20 16"
    fill="none"
    xmlns="http://www.w3.org/2000/svg">
    <path d="M1 15L0.999999 1" stroke="white" stroke-width="1.5" stroke-linecap="round"/>
    <path d="M19 15L19 1" stroke="white" stroke-width="1.5" stroke-linecap="round"/>
    <path d="M8.80801 11.8946L6.12368 9.14767L13.8768 9.14767L11.1925 11.8946C10.9454 12.1474 10.9454 12.5577 11.1925 12.8104C11.4396 13.0632 11.8404 13.0632 12.0875 12.8104L15.82 8.99008C15.9517 8.85502 16.0078 8.67622 15.999 8.49999C16.0084 8.32313 15.9523 8.14433 15.82 8.00927L12.0875 4.18956C11.8404 3.93681 11.4396 3.93681 11.1925 4.18956C10.9454 4.44234 10.9454 4.85266 11.1925 5.10541L13.8768 7.85233L6.12368 7.85233L8.80801 5.10541C9.05507 4.85266 9.05507 4.44232 8.80801 4.18956C8.56094 3.93681 8.16008 3.93681 7.91301 4.18956L4.17989 8.00927C4.04817 8.14433 3.99208 8.32313 4.00089 8.49936C3.99208 8.67624 4.04817 8.85504 4.17989 8.98945L7.91301 12.8091C8.16008 13.0619 8.56094 13.0619 8.80801 12.8091C9.05507 12.557 9.05507 12.1473 8.80801 11.8946Z" fill="white"/>
</svg>
